<svg xmlns="http://www.w3.org/2000/svg" xmlns:xlink="http://www.w3.org/1999/xlink" width="177" height="164" viewBox="0 0 177 164">
  <defs>
    <linearGradient id="linear-gradient" x1="0.5" x2="0.5" y2="1" gradientUnits="objectBoundingBox">
      <stop offset="0" stop-color="#a6c851"/>
      <stop offset="1" stop-color="#b5d172"/>
    </linearGradient>
  </defs>
  <g id="Free" transform="translate(-568 583)">
    <path id="Subtração_1" data-name="Subtração 1" d="M89,164h0L0,87.931V0H177V88.785L89,164Z" transform="translate(568 -583)" fill="url(#linear-gradient)"/>
    <rect id="Retângulo_10" data-name="Retângulo 10" width="177" height="24" transform="translate(568 -575)" fill="rgba(255,255,255,0.11)"/>
    <rect id="Retângulo_13" data-name="Retângulo 13" width="177" height="24" transform="translate(568 -462)" fill="rgba(255,255,255,0.05)"/>
    <g id="Subtração_4" data-name="Subtração 4" transform="translate(573 -580)" fill="none">
      <path d="M83.971,158h0L0,84.714V0H167V85.537L83.972,158Z" stroke="none"/>
      <path d="M 83.97165679931641 155.34521484375 L 165 84.62815856933594 L 165 32.83743286132813 L 165 2 L 2 2 L 2 19.51220512390137 L 2 83.80479431152344 L 83.97165679931641 155.34521484375 M 83.97138977050781 158 L 83.97165679931641 157.9998016357422 L 0 84.71389007568359 L 0 19.51220512390137 L 0 0 L 167 0 L 167 32.83743286132813 L 167 85.53724670410156 L 83.97165679931641 157.9998016357422 L 83.97138977050781 158 Z" stroke="none" fill="#fff"/>
    </g>
    <text id="FREE-2" data-name="FREE" transform="translate(622 -507)" fill="#fff" font-size="30" font-family="MicrosoftYaHei, Microsoft YaHei"><tspan x="0" y="0">FREE</tspan></text>
  </g>
</svg>
